<?xml version="1.0" encoding="UTF-8"?>
<svg width="512" height="512" viewBox="0 0 512 512" fill="none" xmlns="http://www.w3.org/2000/svg">
  <!-- Background circle -->
  <circle cx="256" cy="256" r="240" fill="#F5F5F0"/>
  
  <!-- Leaf shape -->
  <path d="M380 132C300 132 220 212 180 292C140 372 140 452 140 452C140 452 220 452 300 372C380 292 380 132 380 132Z" fill="#4A6741"/>
  
  <!-- Leaf vein -->
  <path d="M260 292C300 252 340 172 360 152M260 292C220 332 180 412 160 432" stroke="#2D4024" stroke-width="16" stroke-linecap="round"/>
  
  <!-- Small leaf accent -->
  <path d="M320 212C280 212 240 252 220 292C200 332 200 372 200 372C200 372 240 372 280 332C320 292 320 212 320 212Z" fill="#6A8F5E"/>
</svg>
